<svg width="28" height="22" viewBox="0 0 28 22" fill="none" xmlns="http://www.w3.org/2000/svg">
<path d="M5.99935 21.6678C4.53268 21.6678 3.27713 21.1456 2.23268 20.1011C1.18824 19.0567 0.666016 17.8011 0.666016 16.3345V5.6678C0.666016 4.20114 1.18824 2.94558 2.23268 1.90114C3.27713 0.856695 4.53268 0.334473 5.99935 0.334473H21.9993C23.466 0.334473 24.7216 0.856695 25.766 1.90114C26.8105 2.94558 27.3327 4.20114 27.3327 5.6678V16.3345C27.3327 17.8011 26.8105 19.0567 25.766 20.1011C24.7216 21.1456 23.466 21.6678 21.9993 21.6678H5.99935ZM5.99935 5.6678H21.9993C22.4882 5.6678 22.9549 5.72336 23.3993 5.83447C23.8438 5.94558 24.266 6.12336 24.666 6.3678V5.6678C24.666 4.93447 24.4049 4.30669 23.8827 3.78447C23.3605 3.26225 22.7327 3.00114 21.9993 3.00114H5.99935C5.26602 3.00114 4.63824 3.26225 4.11602 3.78447C3.59379 4.30669 3.33268 4.93447 3.33268 5.6678V6.3678C3.73268 6.12336 4.1549 5.94558 4.59935 5.83447C5.04379 5.72336 5.51046 5.6678 5.99935 5.6678ZM3.53268 10.0011L18.366 13.6011C18.566 13.6456 18.766 13.6456 18.966 13.6011C19.166 13.5567 19.3549 13.4678 19.5327 13.3345L24.166 9.4678C23.9216 9.13447 23.6105 8.86225 23.2327 8.65114C22.8549 8.44003 22.4438 8.33447 21.9993 8.33447H5.99935C5.42157 8.33447 4.91602 8.48447 4.48268 8.78447C4.04935 9.08447 3.73268 9.49003 3.53268 10.0011Z" fill="white"/>
</svg>
